ISO-10303-21;
HEADER;
FILE_DESCRIPTION(('FreeCAD Model'),'2;1');
FILE_NAME(
'/home/shack/DAS-GIT/FS-LIB/FS-Conn.pretty/U.FL_Hirose_U.FL-R-SMT-1_
Vertical.step','2017-11-24T17:15:48',('kicad StepUp'),('ksu MCAD'),
  'Open CASCADE STEP processor 7.1','FreeCAD','Unknown');
FILE_SCHEMA(('AUTOMOTIVE_DESIGN { 1 0 10303 214 1 1 1 1 }'));
ENDSEC;
DATA;
#1=APPLICATION_PROTOCOL_DEFINITION('international standard','automotive_design',2000,#2);
#2=APPLICATION_CONTEXT('core data for automotive mechanical design processes');
#3=SHAPE_DEFINITION_REPRESENTATION(#4,#10);
#4=PRODUCT_DEFINITION_SHAPE('','',#5);
#5=PRODUCT_DEFINITION('design','',#6,#9);
#6=PRODUCT_DEFINITION_FORMATION('','',#7);
#7=PRODUCT('U.FL_Hirose_U.FL-R-SMT-1_Vertical','U.FL_Hirose_U.FL-R-SMT-1_Vertical','',(#8));
#8=PRODUCT_CONTEXT('',#2,'mechanical');
#9=PRODUCT_DEFINITION_CONTEXT('part definition',#2,'design');
#10=ADVANCED_BREP_SHAPE_REPRESENTATION('',(#11,#15),#849);
#11=AXIS2_PLACEMENT_3D('',#12,#13,#14);
#12=CARTESIAN_POINT('',(0.,0.,0.));
#13=DIRECTION('',(0.,0.,1.));
#14=DIRECTION('',(1.,0.,-0.));
#15=MANIFOLD_SOLID_BREP('',#16);
#16=CLOSED_SHELL('',(#17,#36,#54,#71,#87,#99,#117,#134,#153,#169,#185,#207,#278,#297,#336,#353,#369,#402,#437,#453,#470,#499,#515,#530,#539,#597,#613,#627,#639,#656,#669,#681,#699,#714,#728,#734,#745,#774,#786,#798,#806,#813,#820,#827,#837,#844));
#17=ADVANCED_FACE('',(#18),#35,.T.);
#18=FACE_BOUND('',#19,.T.);
#19=EDGE_LOOP('',(#20,#30,#34));
#20=ORIENTED_EDGE('',*,*,#21,.F.);
#21=EDGE_CURVE('',#22,#24,#26,.T.);
#22=VERTEX_POINT('',#23);
#23=CARTESIAN_POINT('',(0.2,2.6645352591E-16,1.05));
#24=VERTEX_POINT('',#25);
#25=CARTESIAN_POINT('',(4.930380657631E-32,4.440892098501E-16,1.25));
#26=CIRCLE('',#27,0.2);
#27=AXIS2_PLACEMENT_3D('',#28,#29,#14);
#28=CARTESIAN_POINT('',(0.,4.440892098501E-16,1.05));
#29=DIRECTION('',(-8.881784197001E-16,-1.,0.));
#30=ORIENTED_EDGE('',*,*,#31,.T.);
#31=EDGE_CURVE('',#22,#22,#32,.T.);
#32=CIRCLE('',#33,0.2);
#33=AXIS2_PLACEMENT_3D('',#28,#13,#14);
#34=ORIENTED_EDGE('',*,*,#21,.T.);
#35=SPHERICAL_SURFACE('',#33,0.2);
#36=ADVANCED_FACE('',(#37),#53,.T.);
#37=FACE_BOUND('',#38,.T.);
#38=EDGE_LOOP('',(#39,#46,#51,#52));
#39=ORIENTED_EDGE('',*,*,#40,.T.);
#40=EDGE_CURVE('',#41,#41,#43,.T.);
#41=VERTEX_POINT('',#42);
#42=CARTESIAN_POINT('',(0.2,2.6645352591E-16,0.35));
#43=CIRCLE('',#44,0.2);
#44=AXIS2_PLACEMENT_3D('',#45,#13,#14);
#45=CARTESIAN_POINT('',(9.860761315263E-32,4.440892098501E-16,0.35));
#46=ORIENTED_EDGE('',*,*,#47,.T.);
#47=EDGE_CURVE('',#41,#22,#48,.T.);
#48=LINE('',#49,#50);
#49=CARTESIAN_POINT('',(0.2,2.1645352591E-16,0.));
#50=VECTOR('',#13,1.);
#51=ORIENTED_EDGE('',*,*,#31,.F.);
#52=ORIENTED_EDGE('',*,*,#47,.F.);
#53=CYLINDRICAL_SURFACE('',#11,0.2);
#54=ADVANCED_FACE('',(#55,#65),#68,.T.);
#55=FACE_BOUND('',#56,.T.);
#56=EDGE_LOOP('',(#57));
#57=ORIENTED_EDGE('',*,*,#58,.F.);
#58=EDGE_CURVE('',#59,#59,#61,.T.);
#59=VERTEX_POINT('',#60);
#60=CARTESIAN_POINT('',(7.993605777301E-16,0.9,0.35));
#61=CIRCLE('',#62,0.9);
#62=AXIS2_PLACEMENT_3D('',#45,#63,#64);
#63=DIRECTION('',(5.6E-16,-3.9E-16,-1.));
#64=DIRECTION('',(1.1081784197E-15,1.,-3.9E-16));
#65=FACE_BOUND('',#66,.T.);
#66=EDGE_LOOP('',(#67));
#67=ORIENTED_EDGE('',*,*,#40,.F.);
#68=PLANE('',#69);
#69=AXIS2_PLACEMENT_3D('',#70,#13,#14);
#70=CARTESIAN_POINT('',(-1.3,-1.3,0.35));
#71=ADVANCED_FACE('',(#72),#85,.F.);
#72=FACE_BOUND('',#73,.T.);
#73=EDGE_LOOP('',(#74,#79,#80,#81));
#74=ORIENTED_EDGE('',*,*,#75,.F.);
#75=EDGE_CURVE('',#59,#76,#78,.T.);
#76=VERTEX_POINT('',#77);
#77=CARTESIAN_POINT('',(-2.006394222699E-16,0.9,1.25));
#78=LINE('',#60,#50);
#79=ORIENTED_EDGE('',*,*,#58,.T.);
#80=ORIENTED_EDGE('',*,*,#75,.T.);
#81=ORIENTED_EDGE('',*,*,#82,.F.);
#82=EDGE_CURVE('',#76,#76,#83,.T.);
#83=CIRCLE('',#84,0.9);
#84=AXIS2_PLACEMENT_3D('',#25,#63,#64);
#85=CYLINDRICAL_SURFACE('',#86,0.9);
#86=AXIS2_PLACEMENT_3D('',#45,#13,#64);
#87=ADVANCED_FACE('',(#88,#91),#98,.F.);
#88=FACE_BOUND('',#89,.T.);
#89=EDGE_LOOP('',(#90));
#90=ORIENTED_EDGE('',*,*,#82,.T.);
#91=FACE_BOUND('',#92,.T.);
#92=EDGE_LOOP('',(#93));
#93=ORIENTED_EDGE('',*,*,#94,.F.);
#94=EDGE_CURVE('',#95,#95,#97,.T.);
#95=VERTEX_POINT('',#96);
#96=CARTESIAN_POINT('',(-1.562305012849E-16,0.95,1.25));
#97=CIRCLE('',#84,0.95);
#98=PLANE('',#84);
#99=ADVANCED_FACE('',(#100),#116,.T.);
#100=FACE_BOUND('',#101,.T.);
#101=EDGE_LOOP('',(#102,#103,#110,#115));
#102=ORIENTED_EDGE('',*,*,#94,.T.);
#103=ORIENTED_EDGE('',*,*,#104,.T.);
#104=EDGE_CURVE('',#95,#105,#107,.T.);
#105=VERTEX_POINT('',#106);
#106=CARTESIAN_POINT('',(-1.118215802999E-16,1.,1.2));
#107=LINE('',#96,#108);
#108=VECTOR('',#109,1.);
#109=DIRECTION('',(7.080369834735E-16,0.707106781187,-0.707106781187));
#110=ORIENTED_EDGE('',*,*,#111,.F.);
#111=EDGE_CURVE('',#105,#105,#112,.T.);
#112=CIRCLE('',#113,1.);
#113=AXIS2_PLACEMENT_3D('',#114,#63,#64);
#114=CARTESIAN_POINT('',(-6.7E-16,9.140892098501E-16,1.2));
#115=ORIENTED_EDGE('',*,*,#104,.F.);
#116=CONICAL_SURFACE('',#84,0.95,0.785398163397);
#117=ADVANCED_FACE('',(#118),#133,.T.);
#118=FACE_BOUND('',#119,.T.);
#119=EDGE_LOOP('',(#120,#121,#127,#132));
#120=ORIENTED_EDGE('',*,*,#111,.T.);
#121=ORIENTED_EDGE('',*,*,#122,.T.);
#122=EDGE_CURVE('',#105,#123,#125,.T.);
#123=VERTEX_POINT('',#124);
#124=CARTESIAN_POINT('',(8.881784197001E-16,1.,0.729999999995));
#125=LINE('',#106,#126);
#126=VECTOR('',#63,1.);
#127=ORIENTED_EDGE('',*,*,#128,.F.);
#128=EDGE_CURVE('',#123,#123,#129,.T.);
#129=CIRCLE('',#130,1.);
#130=AXIS2_PLACEMENT_3D('',#131,#63,#64);
#131=CARTESIAN_POINT('',(-4.1E-16,7.240892098501E-16,0.729999999995));
#132=ORIENTED_EDGE('',*,*,#122,.F.);
#133=CYLINDRICAL_SURFACE('',#113,1.);
#134=ADVANCED_FACE('',(#135),#151,.T.);
#135=FACE_BOUND('',#136,.T.);
#136=EDGE_LOOP('',(#137,#138,#145,#150));
#137=ORIENTED_EDGE('',*,*,#128,.T.);
#138=ORIENTED_EDGE('',*,*,#139,.T.);
#139=EDGE_CURVE('',#123,#140,#142,.T.);
#140=VERTEX_POINT('',#141);
#141=CARTESIAN_POINT('',(8.526512829121E-16,0.96,0.689999999998));
#142=LINE('',#124,#143);
#143=VECTOR('',#144,1.);
#144=DIRECTION('',(-2.380369834918E-16,-0.707106781207,-0.707106781166));
#145=ORIENTED_EDGE('',*,*,#146,.F.);
#146=EDGE_CURVE('',#140,#140,#147,.T.);
#147=CIRCLE('',#148,0.96);
#148=AXIS2_PLACEMENT_3D('',#149,#63,#64);
#149=CARTESIAN_POINT('',(-3.8E-16,7.140892098501E-16,0.689999999998));
#150=ORIENTED_EDGE('',*,*,#139,.F.);
#151=CONICAL_SURFACE('',#152,1.,0.785398163427);
#152=AXIS2_PLACEMENT_3D('',#131,#13,#64);
#153=ADVANCED_FACE('',(#154),#168,.T.);
#154=FACE_BOUND('',#155,.T.);
#155=EDGE_LOOP('',(#156,#157,#162,#167));
#156=ORIENTED_EDGE('',*,*,#146,.T.);
#157=ORIENTED_EDGE('',*,*,#158,.T.);
#158=EDGE_CURVE('',#140,#159,#161,.T.);
#159=VERTEX_POINT('',#160);
#160=CARTESIAN_POINT('',(8.526512829121E-16,0.96,0.589999999998));
#161=LINE('',#141,#126);
#162=ORIENTED_EDGE('',*,*,#163,.F.);
#163=EDGE_CURVE('',#159,#159,#164,.T.);
#164=CIRCLE('',#165,0.96);
#165=AXIS2_PLACEMENT_3D('',#166,#63,#64);
#166=CARTESIAN_POINT('',(-3.3E-16,6.740892098501E-16,0.589999999998));
#167=ORIENTED_EDGE('',*,*,#158,.F.);
#168=CYLINDRICAL_SURFACE('',#148,0.96);
#169=ADVANCED_FACE('',(#170),#184,.T.);
#170=FACE_BOUND('',#171,.T.);
#171=EDGE_LOOP('',(#172,#173,#178,#183));
#172=ORIENTED_EDGE('',*,*,#163,.T.);
#173=ORIENTED_EDGE('',*,*,#174,.T.);
#174=EDGE_CURVE('',#159,#175,#177,.T.);
#175=VERTEX_POINT('',#176);
#176=CARTESIAN_POINT('',(8.881784197001E-16,1.,0.55));
#177=LINE('',#160,#108);
#178=ORIENTED_EDGE('',*,*,#179,.F.);
#179=EDGE_CURVE('',#175,#175,#180,.T.);
#180=CIRCLE('',#181,1.);
#181=AXIS2_PLACEMENT_3D('',#182,#63,#64);
#182=CARTESIAN_POINT('',(-3.1E-16,6.540892098501E-16,0.55));
#183=ORIENTED_EDGE('',*,*,#174,.F.);
#184=CONICAL_SURFACE('',#165,0.96,0.785398163427);
#185=ADVANCED_FACE('',(#186),#206,.T.);
#186=FACE_BOUND('',#187,.T.);
#187=EDGE_LOOP('',(#188,#189,#194,#199,#203,#205));
#188=ORIENTED_EDGE('',*,*,#179,.T.);
#189=ORIENTED_EDGE('',*,*,#190,.T.);
#190=EDGE_CURVE('',#175,#191,#193,.T.);
#191=VERTEX_POINT('',#192);
#192=CARTESIAN_POINT('',(8.881784197001E-16,1.,0.35));
#193=LINE('',#176,#126);
#194=ORIENTED_EDGE('',*,*,#195,.F.);
#195=EDGE_CURVE('',#196,#191,#198,.T.);
#196=VERTEX_POINT('',#197);
#197=CARTESIAN_POINT('',(0.953939201417,-0.3,0.35));
#198=CIRCLE('',#62,1.);
#199=ORIENTED_EDGE('',*,*,#200,.F.);
#200=EDGE_CURVE('',#201,#196,#198,.T.);
#201=VERTEX_POINT('',#202);
#202=CARTESIAN_POINT('',(0.953939201417,0.3,0.35));
#203=ORIENTED_EDGE('',*,*,#204,.F.);
#204=EDGE_CURVE('',#191,#201,#198,.T.);
#205=ORIENTED_EDGE('',*,*,#190,.F.);
#206=CYLINDRICAL_SURFACE('',#181,1.);
#207=ADVANCED_FACE('',(#208),#68,.T.);
#208=FACE_BOUND('',#209,.T.);
#209=EDGE_LOOP('',(#210,#218,#225,#231,#238,#244,#248,#249,#250,#256,#260,#267,#273));
#210=ORIENTED_EDGE('',*,*,#211,.F.);
#211=EDGE_CURVE('',#212,#214,#216,.T.);
#212=VERTEX_POINT('',#213);
#213=CARTESIAN_POINT('',(-1.3,-1.,0.35));
#214=VERTEX_POINT('',#215);
#215=CARTESIAN_POINT('',(-1.3,1.,0.35));
#216=LINE('',#70,#217);
#217=VECTOR('',#64,1.);
#218=ORIENTED_EDGE('',*,*,#219,.T.);
#219=EDGE_CURVE('',#212,#220,#222,.T.);
#220=VERTEX_POINT('',#221);
#221=CARTESIAN_POINT('',(-1.,-1.3,0.35));
#222=CIRCLE('',#223,0.3);
#223=AXIS2_PLACEMENT_3D('',#224,#13,#29);
#224=CARTESIAN_POINT('',(-1.,-1.,0.35));
#225=ORIENTED_EDGE('',*,*,#226,.T.);
#226=EDGE_CURVE('',#220,#227,#229,.T.);
#227=VERTEX_POINT('',#228);
#228=CARTESIAN_POINT('',(1.,-1.3,0.35));
#229=LINE('',#70,#230);
#230=VECTOR('',#14,1.);
#231=ORIENTED_EDGE('',*,*,#232,.F.);
#232=EDGE_CURVE('',#233,#227,#235,.T.);
#233=VERTEX_POINT('',#234);
#234=CARTESIAN_POINT('',(1.3,-1.,0.35));
#235=CIRCLE('',#236,0.3);
#236=AXIS2_PLACEMENT_3D('',#237,#63,#29);
#237=CARTESIAN_POINT('',(1.,-1.,0.35));
#238=ORIENTED_EDGE('',*,*,#239,.T.);
#239=EDGE_CURVE('',#233,#240,#242,.T.);
#240=VERTEX_POINT('',#241);
#241=CARTESIAN_POINT('',(1.3,-0.3,0.35));
#242=LINE('',#243,#217);
#243=CARTESIAN_POINT('',(1.3,-1.3,0.35));
#244=ORIENTED_EDGE('',*,*,#245,.F.);
#245=EDGE_CURVE('',#196,#240,#246,.T.);
#246=LINE('',#247,#230);
#247=CARTESIAN_POINT('',(0.95,-0.3,0.35));
#248=ORIENTED_EDGE('',*,*,#195,.T.);
#249=ORIENTED_EDGE('',*,*,#204,.T.);
#250=ORIENTED_EDGE('',*,*,#251,.T.);
#251=EDGE_CURVE('',#201,#252,#254,.T.);
#252=VERTEX_POINT('',#253);
#253=CARTESIAN_POINT('',(1.3,0.3,0.35));
#254=LINE('',#255,#230);
#255=CARTESIAN_POINT('',(0.95,0.3,0.35));
#256=ORIENTED_EDGE('',*,*,#257,.T.);
#257=EDGE_CURVE('',#252,#258,#242,.T.);
#258=VERTEX_POINT('',#259);
#259=CARTESIAN_POINT('',(1.3,1.,0.35));
#260=ORIENTED_EDGE('',*,*,#261,.T.);
#261=EDGE_CURVE('',#258,#262,#264,.T.);
#262=VERTEX_POINT('',#263);
#263=CARTESIAN_POINT('',(1.,1.3,0.35));
#264=CIRCLE('',#265,0.3);
#265=AXIS2_PLACEMENT_3D('',#266,#13,#29);
#266=CARTESIAN_POINT('',(1.,1.,0.35));
#267=ORIENTED_EDGE('',*,*,#268,.F.);
#268=EDGE_CURVE('',#269,#262,#271,.T.);
#269=VERTEX_POINT('',#270);
#270=CARTESIAN_POINT('',(-1.,1.3,0.35));
#271=LINE('',#272,#230);
#272=CARTESIAN_POINT('',(-1.3,1.3,0.35));
#273=ORIENTED_EDGE('',*,*,#274,.F.);
#274=EDGE_CURVE('',#214,#269,#275,.T.);
#275=CIRCLE('',#276,0.3);
#276=AXIS2_PLACEMENT_3D('',#277,#63,#29);
#277=CARTESIAN_POINT('',(-1.,1.,0.35));
#278=ADVANCED_FACE('',(#279),#295,.T.);
#279=FACE_BOUND('',#280,.T.);
#280=EDGE_LOOP('',(#281,#282,#283,#284,#288,#293));
#281=ORIENTED_EDGE('',*,*,#251,.F.);
#282=ORIENTED_EDGE('',*,*,#200,.T.);
#283=ORIENTED_EDGE('',*,*,#245,.T.);
#284=ORIENTED_EDGE('',*,*,#285,.T.);
#285=EDGE_CURVE('',#240,#286,#246,.T.);
#286=VERTEX_POINT('',#287);
#287=CARTESIAN_POINT('',(1.55,-0.3,0.35));
#288=ORIENTED_EDGE('',*,*,#289,.T.);
#289=EDGE_CURVE('',#286,#290,#292,.T.);
#290=VERTEX_POINT('',#291);
#291=CARTESIAN_POINT('',(1.55,0.3,0.35));
#292=LINE('',#287,#217);
#293=ORIENTED_EDGE('',*,*,#294,.F.);
#294=EDGE_CURVE('',#252,#290,#254,.T.);
#295=PLANE('',#296);
#296=AXIS2_PLACEMENT_3D('',#247,#13,#14);
#297=ADVANCED_FACE('',(#298),#334,.F.);
#298=FACE_BOUND('',#299,.F.);
#299=EDGE_LOOP('',(#210,#300,#305,#311,#316,#322,#327,#331));
#300=ORIENTED_EDGE('',*,*,#301,.F.);
#301=EDGE_CURVE('',#302,#212,#304,.T.);
#302=VERTEX_POINT('',#303);
#303=CARTESIAN_POINT('',(-1.3,-1.,0.));
#304=LINE('',#303,#50);
#305=ORIENTED_EDGE('',*,*,#306,.T.);
#306=EDGE_CURVE('',#302,#307,#309,.T.);
#307=VERTEX_POINT('',#308);
#308=CARTESIAN_POINT('',(-1.3,-0.3,0.));
#309=LINE('',#310,#217);
#310=CARTESIAN_POINT('',(-1.3,-1.3,0.));
#311=ORIENTED_EDGE('',*,*,#312,.F.);
#312=EDGE_CURVE('',#313,#307,#315,.T.);
#313=VERTEX_POINT('',#314);
#314=CARTESIAN_POINT('',(-1.3,-0.3,0.15));
#315=LINE('',#308,#126);
#316=ORIENTED_EDGE('',*,*,#317,.T.);
#317=EDGE_CURVE('',#313,#318,#320,.T.);
#318=VERTEX_POINT('',#319);
#319=CARTESIAN_POINT('',(-1.3,0.3,0.15));
#320=LINE('',#321,#217);
#321=CARTESIAN_POINT('',(-1.3,-0.8,0.15));
#322=ORIENTED_EDGE('',*,*,#323,.T.);
#323=EDGE_CURVE('',#318,#324,#326,.T.);
#324=VERTEX_POINT('',#325);
#325=CARTESIAN_POINT('',(-1.3,0.3,0.));
#326=LINE('',#325,#126);
#327=ORIENTED_EDGE('',*,*,#328,.T.);
#328=EDGE_CURVE('',#324,#329,#309,.T.);
#329=VERTEX_POINT('',#330);
#330=CARTESIAN_POINT('',(-1.3,1.,0.));
#331=ORIENTED_EDGE('',*,*,#332,.T.);
#332=EDGE_CURVE('',#329,#214,#333,.T.);
#333=LINE('',#330,#50);
#334=PLANE('',#335);
#335=AXIS2_PLACEMENT_3D('',#310,#14,#13);
#336=ADVANCED_FACE('',(#337),#350,.T.);
#337=FACE_BOUND('',#338,.T.);
#338=EDGE_LOOP('',(#339,#346,#349,#300));
#339=ORIENTED_EDGE('',*,*,#340,.T.);
#340=EDGE_CURVE('',#302,#341,#343,.T.);
#341=VERTEX_POINT('',#342);
#342=CARTESIAN_POINT('',(-1.,-1.3,0.));
#343=CIRCLE('',#344,0.3);
#344=AXIS2_PLACEMENT_3D('',#345,#13,#29);
#345=CARTESIAN_POINT('',(-1.,-1.,0.));
#346=ORIENTED_EDGE('',*,*,#347,.T.);
#347=EDGE_CURVE('',#341,#220,#348,.T.);
#348=LINE('',#342,#50);
#349=ORIENTED_EDGE('',*,*,#219,.F.);
#350=CYLINDRICAL_SURFACE('',#351,0.3);
#351=AXIS2_PLACEMENT_3D('',#345,#13,#352);
#352=DIRECTION('',(-1.,8.881784197001E-16,0.));
#353=ADVANCED_FACE('',(#354),#367,.T.);
#354=FACE_BOUND('',#355,.F.);
#355=EDGE_LOOP('',(#356,#363,#273,#366));
#356=ORIENTED_EDGE('',*,*,#357,.T.);
#357=EDGE_CURVE('',#329,#358,#360,.T.);
#358=VERTEX_POINT('',#359);
#359=CARTESIAN_POINT('',(-1.,1.3,0.));
#360=CIRCLE('',#361,0.3);
#361=AXIS2_PLACEMENT_3D('',#362,#63,#29);
#362=CARTESIAN_POINT('',(-1.,1.,0.));
#363=ORIENTED_EDGE('',*,*,#364,.T.);
#364=EDGE_CURVE('',#358,#269,#365,.T.);
#365=LINE('',#359,#50);
#366=ORIENTED_EDGE('',*,*,#332,.F.);
#367=CYLINDRICAL_SURFACE('',#368,0.3);
#368=AXIS2_PLACEMENT_3D('',#362,#13,#352);
#369=ADVANCED_FACE('',(#370),#400,.F.);
#370=FACE_BOUND('',#371,.F.);
#371=EDGE_LOOP('',(#372,#346,#225,#377,#382,#386,#391,#397));
#372=ORIENTED_EDGE('',*,*,#373,.F.);
#373=EDGE_CURVE('',#341,#374,#376,.T.);
#374=VERTEX_POINT('',#375);
#375=CARTESIAN_POINT('',(-0.9,-1.3,0.));
#376=LINE('',#310,#230);
#377=ORIENTED_EDGE('',*,*,#378,.F.);
#378=EDGE_CURVE('',#379,#227,#381,.T.);
#379=VERTEX_POINT('',#380);
#380=CARTESIAN_POINT('',(1.,-1.3,0.));
#381=LINE('',#380,#50);
#382=ORIENTED_EDGE('',*,*,#383,.F.);
#383=EDGE_CURVE('',#384,#379,#376,.T.);
#384=VERTEX_POINT('',#385);
#385=CARTESIAN_POINT('',(0.9,-1.3,0.));
#386=ORIENTED_EDGE('',*,*,#387,.F.);
#387=EDGE_CURVE('',#388,#384,#390,.T.);
#388=VERTEX_POINT('',#389);
#389=CARTESIAN_POINT('',(0.9,-1.3,0.15));
#390=LINE('',#385,#126);
#391=ORIENTED_EDGE('',*,*,#392,.F.);
#392=EDGE_CURVE('',#393,#388,#395,.T.);
#393=VERTEX_POINT('',#394);
#394=CARTESIAN_POINT('',(-0.9,-1.3,0.15));
#395=LINE('',#396,#230);
#396=CARTESIAN_POINT('',(-1.1,-1.3,0.15));
#397=ORIENTED_EDGE('',*,*,#398,.T.);
#398=EDGE_CURVE('',#393,#374,#399,.T.);
#399=LINE('',#375,#126);
#400=PLANE('',#401);
#401=AXIS2_PLACEMENT_3D('',#310,#64,#13);
#402=ADVANCED_FACE('',(#403),#435,.T.);
#403=FACE_BOUND('',#404,.T.);
#404=EDGE_LOOP('',(#405,#363,#411,#412,#417,#421,#426,#432));
#405=ORIENTED_EDGE('',*,*,#406,.F.);
#406=EDGE_CURVE('',#358,#407,#409,.T.);
#407=VERTEX_POINT('',#408);
#408=CARTESIAN_POINT('',(-0.9,1.3,0.));
#409=LINE('',#410,#230);
#410=CARTESIAN_POINT('',(-1.3,1.3,0.));
#411=ORIENTED_EDGE('',*,*,#268,.T.);
#412=ORIENTED_EDGE('',*,*,#413,.F.);
#413=EDGE_CURVE('',#414,#262,#416,.T.);
#414=VERTEX_POINT('',#415);
#415=CARTESIAN_POINT('',(1.,1.3,0.));
#416=LINE('',#415,#50);
#417=ORIENTED_EDGE('',*,*,#418,.F.);
#418=EDGE_CURVE('',#419,#414,#409,.T.);
#419=VERTEX_POINT('',#420);
#420=CARTESIAN_POINT('',(0.9,1.3,0.));
#421=ORIENTED_EDGE('',*,*,#422,.F.);
#422=EDGE_CURVE('',#423,#419,#425,.T.);
#423=VERTEX_POINT('',#424);
#424=CARTESIAN_POINT('',(0.9,1.3,0.15));
#425=LINE('',#420,#126);
#426=ORIENTED_EDGE('',*,*,#427,.F.);
#427=EDGE_CURVE('',#428,#423,#430,.T.);
#428=VERTEX_POINT('',#429);
#429=CARTESIAN_POINT('',(-0.9,1.3,0.15));
#430=LINE('',#431,#230);
#431=CARTESIAN_POINT('',(-1.1,1.3,0.15));
#432=ORIENTED_EDGE('',*,*,#433,.T.);
#433=EDGE_CURVE('',#428,#407,#434,.T.);
#434=LINE('',#408,#126);
#435=PLANE('',#436);
#436=AXIS2_PLACEMENT_3D('',#410,#64,#13);
#437=ADVANCED_FACE('',(#438),#451,.T.);
#438=FACE_BOUND('',#439,.F.);
#439=EDGE_LOOP('',(#440,#447,#231,#448));
#440=ORIENTED_EDGE('',*,*,#441,.T.);
#441=EDGE_CURVE('',#442,#379,#444,.T.);
#442=VERTEX_POINT('',#443);
#443=CARTESIAN_POINT('',(1.3,-1.,0.));
#444=CIRCLE('',#445,0.3);
#445=AXIS2_PLACEMENT_3D('',#446,#63,#29);
#446=CARTESIAN_POINT('',(1.,-1.,0.));
#447=ORIENTED_EDGE('',*,*,#378,.T.);
#448=ORIENTED_EDGE('',*,*,#449,.F.);
#449=EDGE_CURVE('',#442,#233,#450,.T.);
#450=LINE('',#443,#50);
#451=CYLINDRICAL_SURFACE('',#452,0.3);
#452=AXIS2_PLACEMENT_3D('',#446,#13,#14);
#453=ADVANCED_FACE('',(#454),#468,.T.);
#454=FACE_BOUND('',#455,.T.);
#455=EDGE_LOOP('',(#456,#463,#464,#465));
#456=ORIENTED_EDGE('',*,*,#457,.T.);
#457=EDGE_CURVE('',#458,#414,#460,.T.);
#458=VERTEX_POINT('',#459);
#459=CARTESIAN_POINT('',(1.3,1.,0.));
#460=CIRCLE('',#461,0.3);
#461=AXIS2_PLACEMENT_3D('',#462,#13,#29);
#462=CARTESIAN_POINT('',(1.,1.,0.));
#463=ORIENTED_EDGE('',*,*,#413,.T.);
#464=ORIENTED_EDGE('',*,*,#261,.F.);
#465=ORIENTED_EDGE('',*,*,#466,.F.);
#466=EDGE_CURVE('',#458,#258,#467,.T.);
#467=LINE('',#459,#50);
#468=CYLINDRICAL_SURFACE('',#469,0.3);
#469=AXIS2_PLACEMENT_3D('',#462,#13,#14);
#470=ADVANCED_FACE('',(#471),#497,.T.);
#471=FACE_BOUND('',#472,.T.);
#472=EDGE_LOOP('',(#473,#448,#474,#478,#479,#480,#486,#493));
#473=ORIENTED_EDGE('',*,*,#239,.F.);
#474=ORIENTED_EDGE('',*,*,#475,.T.);
#475=EDGE_CURVE('',#442,#458,#476,.T.);
#476=LINE('',#477,#217);
#477=CARTESIAN_POINT('',(1.3,-1.3,0.));
#478=ORIENTED_EDGE('',*,*,#466,.T.);
#479=ORIENTED_EDGE('',*,*,#257,.F.);
#480=ORIENTED_EDGE('',*,*,#481,.F.);
#481=EDGE_CURVE('',#482,#252,#484,.T.);
#482=VERTEX_POINT('',#483);
#483=CARTESIAN_POINT('',(1.3,0.3,0.2));
#484=LINE('',#485,#50);
#485=CARTESIAN_POINT('',(1.3,0.3,0.1));
#486=ORIENTED_EDGE('',*,*,#487,.T.);
#487=EDGE_CURVE('',#482,#488,#490,.T.);
#488=VERTEX_POINT('',#489);
#489=CARTESIAN_POINT('',(1.3,-0.3,0.2));
#490=LINE('',#491,#492);
#491=CARTESIAN_POINT('',(1.3,-0.8,0.2));
#492=VECTOR('',#29,1.);
#493=ORIENTED_EDGE('',*,*,#494,.T.);
#494=EDGE_CURVE('',#488,#240,#495,.T.);
#495=LINE('',#496,#50);
#496=CARTESIAN_POINT('',(1.3,-0.3,0.1));
#497=PLANE('',#498);
#498=AXIS2_PLACEMENT_3D('',#477,#14,#13);
#499=ADVANCED_FACE('',(#500),#513,.T.);
#500=FACE_BOUND('',#501,.T.);
#501=EDGE_LOOP('',(#502,#508,#509,#510));
#502=ORIENTED_EDGE('',*,*,#503,.F.);
#503=EDGE_CURVE('',#482,#504,#506,.T.);
#504=VERTEX_POINT('',#505);
#505=CARTESIAN_POINT('',(1.55,0.3,0.2));
#506=LINE('',#507,#230);
#507=CARTESIAN_POINT('',(0.95,0.3,0.2));
#508=ORIENTED_EDGE('',*,*,#481,.T.);
#509=ORIENTED_EDGE('',*,*,#294,.T.);
#510=ORIENTED_EDGE('',*,*,#511,.F.);
#511=EDGE_CURVE('',#504,#290,#512,.T.);
#512=LINE('',#505,#50);
#513=PLANE('',#514);
#514=AXIS2_PLACEMENT_3D('',#507,#64,#13);
#515=ADVANCED_FACE('',(#516),#528,.T.);
#516=FACE_BOUND('',#517,.T.);
#517=EDGE_LOOP('',(#518,#523,#526,#527));
#518=ORIENTED_EDGE('',*,*,#519,.F.);
#519=EDGE_CURVE('',#520,#286,#522,.T.);
#520=VERTEX_POINT('',#521);
#521=CARTESIAN_POINT('',(1.55,-0.3,0.2));
#522=LINE('',#521,#50);
#523=ORIENTED_EDGE('',*,*,#524,.T.);
#524=EDGE_CURVE('',#520,#504,#525,.T.);
#525=LINE('',#521,#217);
#526=ORIENTED_EDGE('',*,*,#511,.T.);
#527=ORIENTED_EDGE('',*,*,#289,.F.);
#528=PLANE('',#529);
#529=AXIS2_PLACEMENT_3D('',#521,#14,#13);
#530=ADVANCED_FACE('',(#531),#537,.F.);
#531=FACE_BOUND('',#532,.F.);
#532=EDGE_LOOP('',(#533,#493,#284,#518));
#533=ORIENTED_EDGE('',*,*,#534,.F.);
#534=EDGE_CURVE('',#488,#520,#535,.T.);
#535=LINE('',#536,#230);
#536=CARTESIAN_POINT('',(0.95,-0.3,0.2));
#537=PLANE('',#538);
#538=AXIS2_PLACEMENT_3D('',#536,#64,#13);
#539=ADVANCED_FACE('',(#540),#595,.F.);
#540=FACE_BOUND('',#541,.F.);
#541=EDGE_LOOP('',(#542,#339,#543,#544,#550,#555,#559,#560,#474,#456,#417,#561,#566,#571,#405,#574,#575,#576,#582,#587,#591));
#542=ORIENTED_EDGE('',*,*,#306,.F.);
#543=ORIENTED_EDGE('',*,*,#373,.T.);
#544=ORIENTED_EDGE('',*,*,#545,.T.);
#545=EDGE_CURVE('',#374,#546,#548,.T.);
#546=VERTEX_POINT('',#547);
#547=CARTESIAN_POINT('',(-0.9,-1.1,0.));
#548=LINE('',#549,#217);
#549=CARTESIAN_POINT('',(-0.9,-1.5,0.));
#550=ORIENTED_EDGE('',*,*,#551,.T.);
#551=EDGE_CURVE('',#546,#552,#554,.T.);
#552=VERTEX_POINT('',#553);
#553=CARTESIAN_POINT('',(0.9,-1.1,0.));
#554=LINE('',#547,#230);
#555=ORIENTED_EDGE('',*,*,#556,.F.);
#556=EDGE_CURVE('',#384,#552,#557,.T.);
#557=LINE('',#558,#217);
#558=CARTESIAN_POINT('',(0.9,-1.5,0.));
#559=ORIENTED_EDGE('',*,*,#383,.T.);
#560=ORIENTED_EDGE('',*,*,#441,.F.);
#561=ORIENTED_EDGE('',*,*,#562,.F.);
#562=EDGE_CURVE('',#563,#419,#565,.T.);
#563=VERTEX_POINT('',#564);
#564=CARTESIAN_POINT('',(0.9,1.1,0.));
#565=LINE('',#564,#217);
#566=ORIENTED_EDGE('',*,*,#567,.F.);
#567=EDGE_CURVE('',#568,#563,#570,.T.);
#568=VERTEX_POINT('',#569);
#569=CARTESIAN_POINT('',(-0.9,1.1,0.));
#570=LINE('',#569,#230);
#571=ORIENTED_EDGE('',*,*,#572,.T.);
#572=EDGE_CURVE('',#568,#407,#573,.T.);
#573=LINE('',#569,#217);
#574=ORIENTED_EDGE('',*,*,#357,.F.);
#575=ORIENTED_EDGE('',*,*,#328,.F.);
#576=ORIENTED_EDGE('',*,*,#577,.T.);
#577=EDGE_CURVE('',#324,#578,#580,.T.);
#578=VERTEX_POINT('',#579);
#579=CARTESIAN_POINT('',(-0.264575131106,0.3,0.));
#580=LINE('',#581,#230);
#581=CARTESIAN_POINT('',(-1.55,0.3,0.));
#582=ORIENTED_EDGE('',*,*,#583,.F.);
#583=EDGE_CURVE('',#584,#578,#586,.T.);
#584=VERTEX_POINT('',#585);
#585=CARTESIAN_POINT('',(0.4,8.881784197001E-17,0.));
#586=CIRCLE('',#11,0.4);
#587=ORIENTED_EDGE('',*,*,#588,.F.);
#588=EDGE_CURVE('',#589,#584,#586,.T.);
#589=VERTEX_POINT('',#590);
#590=CARTESIAN_POINT('',(-0.264575131106,-0.3,0.));
#591=ORIENTED_EDGE('',*,*,#592,.F.);
#592=EDGE_CURVE('',#307,#589,#593,.T.);
#593=LINE('',#594,#230);
#594=CARTESIAN_POINT('',(-1.55,-0.3,0.));
#595=PLANE('',#596);
#596=AXIS2_PLACEMENT_3D('',#310,#13,#14);
#597=ADVANCED_FACE('',(#598),#611,.T.);
#598=FACE_BOUND('',#599,.T.);
#599=EDGE_LOOP('',(#600,#603,#608,#322));
#600=ORIENTED_EDGE('',*,*,#601,.F.);
#601=EDGE_CURVE('',#602,#324,#580,.T.);
#602=VERTEX_POINT('',#581);
#603=ORIENTED_EDGE('',*,*,#604,.T.);
#604=EDGE_CURVE('',#602,#605,#607,.T.);
#605=VERTEX_POINT('',#606);
#606=CARTESIAN_POINT('',(-1.55,0.3,0.15));
#607=LINE('',#581,#50);
#608=ORIENTED_EDGE('',*,*,#609,.T.);
#609=EDGE_CURVE('',#605,#318,#610,.T.);
#610=LINE('',#606,#230);
#611=PLANE('',#612);
#612=AXIS2_PLACEMENT_3D('',#581,#64,#13);
#613=ADVANCED_FACE('',(#614),#625,.T.);
#614=FACE_BOUND('',#615,.T.);
#615=EDGE_LOOP('',(#616,#617,#622,#316));
#616=ORIENTED_EDGE('',*,*,#609,.F.);
#617=ORIENTED_EDGE('',*,*,#618,.F.);
#618=EDGE_CURVE('',#619,#605,#621,.T.);
#619=VERTEX_POINT('',#620);
#620=CARTESIAN_POINT('',(-1.55,-0.3,0.15));
#621=LINE('',#620,#217);
#622=ORIENTED_EDGE('',*,*,#623,.T.);
#623=EDGE_CURVE('',#619,#313,#624,.T.);
#624=LINE('',#620,#230);
#625=PLANE('',#626);
#626=AXIS2_PLACEMENT_3D('',#620,#13,#14);
#627=ADVANCED_FACE('',(#628),#637,.F.);
#628=FACE_BOUND('',#629,.F.);
#629=EDGE_LOOP('',(#630,#633,#622,#636));
#630=ORIENTED_EDGE('',*,*,#631,.F.);
#631=EDGE_CURVE('',#632,#307,#593,.T.);
#632=VERTEX_POINT('',#594);
#633=ORIENTED_EDGE('',*,*,#634,.T.);
#634=EDGE_CURVE('',#632,#619,#635,.T.);
#635=LINE('',#594,#50);
#636=ORIENTED_EDGE('',*,*,#312,.T.);
#637=PLANE('',#638);
#638=AXIS2_PLACEMENT_3D('',#594,#64,#13);
#639=ADVANCED_FACE('',(#640),#654,.F.);
#640=FACE_BOUND('',#641,.F.);
#641=EDGE_LOOP('',(#642,#647,#651,#653));
#642=ORIENTED_EDGE('',*,*,#643,.F.);
#643=EDGE_CURVE('',#644,#393,#646,.T.);
#644=VERTEX_POINT('',#645);
#645=CARTESIAN_POINT('',(-0.9,-1.5,0.15));
#646=LINE('',#645,#217);
#647=ORIENTED_EDGE('',*,*,#648,.F.);
#648=EDGE_CURVE('',#649,#644,#650,.T.);
#649=VERTEX_POINT('',#549);
#650=LINE('',#549,#50);
#651=ORIENTED_EDGE('',*,*,#652,.T.);
#652=EDGE_CURVE('',#649,#374,#548,.T.);
#653=ORIENTED_EDGE('',*,*,#398,.F.);
#654=PLANE('',#655);
#655=AXIS2_PLACEMENT_3D('',#549,#14,#13);
#656=ADVANCED_FACE('',(#657),#667,.T.);
#657=FACE_BOUND('',#658,.T.);
#658=EDGE_LOOP('',(#642,#659,#664,#391));
#659=ORIENTED_EDGE('',*,*,#660,.T.);
#660=EDGE_CURVE('',#644,#661,#663,.T.);
#661=VERTEX_POINT('',#662);
#662=CARTESIAN_POINT('',(0.9,-1.5,0.15));
#663=LINE('',#645,#230);
#664=ORIENTED_EDGE('',*,*,#665,.T.);
#665=EDGE_CURVE('',#661,#388,#666,.T.);
#666=LINE('',#662,#217);
#667=PLANE('',#668);
#668=AXIS2_PLACEMENT_3D('',#645,#13,#14);
#669=ADVANCED_FACE('',(#670),#679,.T.);
#670=FACE_BOUND('',#671,.T.);
#671=EDGE_LOOP('',(#672,#673,#677,#386));
#672=ORIENTED_EDGE('',*,*,#665,.F.);
#673=ORIENTED_EDGE('',*,*,#674,.F.);
#674=EDGE_CURVE('',#675,#661,#676,.T.);
#675=VERTEX_POINT('',#558);
#676=LINE('',#558,#50);
#677=ORIENTED_EDGE('',*,*,#678,.T.);
#678=EDGE_CURVE('',#675,#384,#557,.T.);
#679=PLANE('',#680);
#680=AXIS2_PLACEMENT_3D('',#558,#14,#13);
#681=ADVANCED_FACE('',(#682),#697,.F.);
#682=FACE_BOUND('',#683,.F.);
#683=EDGE_LOOP('',(#432,#684,#688,#693));
#684=ORIENTED_EDGE('',*,*,#685,.T.);
#685=EDGE_CURVE('',#407,#686,#573,.T.);
#686=VERTEX_POINT('',#687);
#687=CARTESIAN_POINT('',(-0.9,1.5,0.));
#688=ORIENTED_EDGE('',*,*,#689,.T.);
#689=EDGE_CURVE('',#686,#690,#692,.T.);
#690=VERTEX_POINT('',#691);
#691=CARTESIAN_POINT('',(-0.9,1.5,0.15));
#692=LINE('',#687,#50);
#693=ORIENTED_EDGE('',*,*,#694,.F.);
#694=EDGE_CURVE('',#428,#690,#695,.T.);
#695=LINE('',#696,#217);
#696=CARTESIAN_POINT('',(-0.9,1.1,0.15));
#697=PLANE('',#698);
#698=AXIS2_PLACEMENT_3D('',#569,#14,#13);
#699=ADVANCED_FACE('',(#700),#712,.T.);
#700=FACE_BOUND('',#701,.T.);
#701=EDGE_LOOP('',(#693,#702,#703,#709));
#702=ORIENTED_EDGE('',*,*,#427,.T.);
#703=ORIENTED_EDGE('',*,*,#704,.T.);
#704=EDGE_CURVE('',#423,#705,#707,.T.);
#705=VERTEX_POINT('',#706);
#706=CARTESIAN_POINT('',(0.9,1.5,0.15));
#707=LINE('',#708,#217);
#708=CARTESIAN_POINT('',(0.9,1.1,0.15));
#709=ORIENTED_EDGE('',*,*,#710,.F.);
#710=EDGE_CURVE('',#690,#705,#711,.T.);
#711=LINE('',#691,#230);
#712=PLANE('',#713);
#713=AXIS2_PLACEMENT_3D('',#696,#13,#14);
#714=ADVANCED_FACE('',(#715),#726,.T.);
#715=FACE_BOUND('',#716,.T.);
#716=EDGE_LOOP('',(#717,#718,#722,#725));
#717=ORIENTED_EDGE('',*,*,#422,.T.);
#718=ORIENTED_EDGE('',*,*,#719,.T.);
#719=EDGE_CURVE('',#419,#720,#565,.T.);
#720=VERTEX_POINT('',#721);
#721=CARTESIAN_POINT('',(0.9,1.5,0.));
#722=ORIENTED_EDGE('',*,*,#723,.T.);
#723=EDGE_CURVE('',#720,#705,#724,.T.);
#724=LINE('',#721,#50);
#725=ORIENTED_EDGE('',*,*,#704,.F.);
#726=PLANE('',#727);
#727=AXIS2_PLACEMENT_3D('',#564,#14,#13);
#728=ADVANCED_FACE('',(#729),#732,.F.);
#729=FACE_BOUND('',#730,.F.);
#730=EDGE_LOOP('',(#486,#731,#523,#502));
#731=ORIENTED_EDGE('',*,*,#534,.T.);
#732=PLANE('',#733);
#733=AXIS2_PLACEMENT_3D('',#536,#13,#14);
#734=ADVANCED_FACE('',(#735),#743,.F.);
#735=FACE_BOUND('',#736,.F.);
#736=EDGE_LOOP('',(#737,#738,#740,#741));
#737=ORIENTED_EDGE('',*,*,#577,.F.);
#738=ORIENTED_EDGE('',*,*,#739,.F.);
#739=EDGE_CURVE('',#307,#324,#309,.T.);
#740=ORIENTED_EDGE('',*,*,#592,.T.);
#741=ORIENTED_EDGE('',*,*,#742,.F.);
#742=EDGE_CURVE('',#578,#589,#586,.T.);
#743=PLANE('',#744);
#744=AXIS2_PLACEMENT_3D('',#594,#13,#14);
#745=ADVANCED_FACE('',(#746),#773,.F.);
#746=FACE_BOUND('',#747,.F.);
#747=EDGE_LOOP('',(#748,#749,#750,#754,#760,#764,#768,#771));
#748=ORIENTED_EDGE('',*,*,#588,.T.);
#749=ORIENTED_EDGE('',*,*,#583,.T.);
#750=ORIENTED_EDGE('',*,*,#751,.T.);
#751=EDGE_CURVE('',#578,#752,#580,.T.);
#752=VERTEX_POINT('',#753);
#753=CARTESIAN_POINT('',(2.6645352591E-16,0.3,0.));
#754=ORIENTED_EDGE('',*,*,#755,.F.);
#755=EDGE_CURVE('',#756,#752,#758,.T.);
#756=VERTEX_POINT('',#757);
#757=CARTESIAN_POINT('',(-8.2236431606E-16,0.2,0.));
#758=LINE('',#759,#217);
#759=CARTESIAN_POINT('',(-2.22044604925E-16,-0.3,0.));
#760=ORIENTED_EDGE('',*,*,#761,.F.);
#761=EDGE_CURVE('',#762,#756,#763,.T.);
#762=VERTEX_POINT('',#49);
#763=CIRCLE('',#11,0.2);
#764=ORIENTED_EDGE('',*,*,#765,.F.);
#765=EDGE_CURVE('',#766,#762,#763,.T.);
#766=VERTEX_POINT('',#767);
#767=CARTESIAN_POINT('',(-1.17763568394E-15,-0.2,0.));
#768=ORIENTED_EDGE('',*,*,#769,.F.);
#769=EDGE_CURVE('',#770,#766,#758,.T.);
#770=VERTEX_POINT('',#759);
#771=ORIENTED_EDGE('',*,*,#772,.F.);
#772=EDGE_CURVE('',#589,#770,#593,.T.);
#773=PLANE('',#11);
#774=ADVANCED_FACE('',(#775),#784,.F.);
#775=FACE_BOUND('',#776,.F.);
#776=EDGE_LOOP('',(#777,#778,#779,#718,#780,#783));
#777=ORIENTED_EDGE('',*,*,#572,.F.);
#778=ORIENTED_EDGE('',*,*,#567,.T.);
#779=ORIENTED_EDGE('',*,*,#562,.T.);
#780=ORIENTED_EDGE('',*,*,#781,.F.);
#781=EDGE_CURVE('',#686,#720,#782,.T.);
#782=LINE('',#687,#230);
#783=ORIENTED_EDGE('',*,*,#685,.F.);
#784=PLANE('',#785);
#785=AXIS2_PLACEMENT_3D('',#569,#13,#14);
#786=ADVANCED_FACE('',(#787),#796,.F.);
#787=FACE_BOUND('',#788,.F.);
#788=EDGE_LOOP('',(#789,#790,#677,#793,#794,#795));
#789=ORIENTED_EDGE('',*,*,#652,.F.);
#790=ORIENTED_EDGE('',*,*,#791,.T.);
#791=EDGE_CURVE('',#649,#675,#792,.T.);
#792=LINE('',#549,#230);
#793=ORIENTED_EDGE('',*,*,#556,.T.);
#794=ORIENTED_EDGE('',*,*,#551,.F.);
#795=ORIENTED_EDGE('',*,*,#545,.F.);
#796=PLANE('',#797);
#797=AXIS2_PLACEMENT_3D('',#549,#13,#14);
#798=ADVANCED_FACE('',(#799),#743,.F.);
#799=FACE_BOUND('',#800,.F.);
#800=EDGE_LOOP('',(#600,#801,#804,#805));
#801=ORIENTED_EDGE('',*,*,#802,.F.);
#802=EDGE_CURVE('',#632,#602,#803,.T.);
#803=LINE('',#594,#217);
#804=ORIENTED_EDGE('',*,*,#631,.T.);
#805=ORIENTED_EDGE('',*,*,#739,.T.);
#806=ADVANCED_FACE('',(#807),#811,.F.);
#807=FACE_BOUND('',#808,.F.);
#808=EDGE_LOOP('',(#809,#810,#603,#617));
#809=ORIENTED_EDGE('',*,*,#634,.F.);
#810=ORIENTED_EDGE('',*,*,#802,.T.);
#811=PLANE('',#812);
#812=AXIS2_PLACEMENT_3D('',#594,#14,#13);
#813=ADVANCED_FACE('',(#814),#818,.F.);
#814=FACE_BOUND('',#815,.F.);
#815=EDGE_LOOP('',(#816,#817,#659,#673));
#816=ORIENTED_EDGE('',*,*,#791,.F.);
#817=ORIENTED_EDGE('',*,*,#648,.T.);
#818=PLANE('',#819);
#819=AXIS2_PLACEMENT_3D('',#549,#64,#13);
#820=ADVANCED_FACE('',(#821),#825,.T.);
#821=FACE_BOUND('',#822,.T.);
#822=EDGE_LOOP('',(#780,#688,#823,#824));
#823=ORIENTED_EDGE('',*,*,#710,.T.);
#824=ORIENTED_EDGE('',*,*,#723,.F.);
#825=PLANE('',#826);
#826=AXIS2_PLACEMENT_3D('',#687,#64,#13);
#827=ADVANCED_FACE('',(#828),#773,.F.);
#828=FACE_BOUND('',#829,.F.);
#829=EDGE_LOOP('',(#830,#831,#832,#833,#834,#836));
#830=ORIENTED_EDGE('',*,*,#751,.F.);
#831=ORIENTED_EDGE('',*,*,#742,.T.);
#832=ORIENTED_EDGE('',*,*,#772,.T.);
#833=ORIENTED_EDGE('',*,*,#769,.T.);
#834=ORIENTED_EDGE('',*,*,#835,.F.);
#835=EDGE_CURVE('',#756,#766,#763,.T.);
#836=ORIENTED_EDGE('',*,*,#755,.T.);
#837=ADVANCED_FACE('',(#838),#773,.F.);
#838=FACE_BOUND('',#839,.F.);
#839=EDGE_LOOP('',(#840,#841,#842));
#840=ORIENTED_EDGE('',*,*,#765,.T.);
#841=ORIENTED_EDGE('',*,*,#761,.T.);
#842=ORIENTED_EDGE('',*,*,#843,.F.);
#843=EDGE_CURVE('',#766,#756,#758,.T.);
#844=ADVANCED_FACE('',(#845),#773,.F.);
#845=FACE_BOUND('',#846,.F.);
#846=EDGE_LOOP('',(#847,#848));
#847=ORIENTED_EDGE('',*,*,#843,.T.);
#848=ORIENTED_EDGE('',*,*,#835,.T.);
#849=( GEOMETRIC_REPRESENTATION_CONTEXT(3) GLOBAL_UNCERTAINTY_ASSIGNED_CONTEXT((#853)) GLOBAL_UNIT_ASSIGNED_CONTEXT((#850,#851,#852)) REPRESENTATION_CONTEXT('Context #1','3D Context with UNIT and UNCERTAINTY') );
#850=( LENGTH_UNIT() NAMED_UNIT(*) SI_UNIT(.MILLI.,.METRE.) );
#851=( NAMED_UNIT(*) PLANE_ANGLE_UNIT() SI_UNIT($,.RADIAN.) );
#852=( NAMED_UNIT(*) SI_UNIT($,.STERADIAN.) SOLID_ANGLE_UNIT() );
#853=UNCERTAINTY_MEASURE_WITH_UNIT(LENGTH_MEASURE(1.E-07),#850,'distance_accuracy_value','confusion accuracy');
#854=MECHANICAL_DESIGN_GEOMETRIC_PRESENTATION_REPRESENTATION('',(#855,#863,#864,#872,#880,#881,#882,#883,#884,#885,#886,#887,#888,#889,#890,#891,#892,#893,#894,#895,#896,#897,#898,#899,#900,#901,#902,#903,#904,#905,#906,#907,#908,#909,#910,#911,#912,#913,#914,#915,#916,#917,#918,#919,#920,#921),#849);
#855=STYLED_ITEM('color',(#856),#17);
#856=PRESENTATION_STYLE_ASSIGNMENT((#857));
#857=SURFACE_STYLE_USAGE(.BOTH.,#858);
#858=SURFACE_SIDE_STYLE('',(#859));
#859=SURFACE_STYLE_FILL_AREA(#860);
#860=FILL_AREA_STYLE('',(#861));
#861=FILL_AREA_STYLE_COLOUR('',#862);
#862=COLOUR_RGB('',0.85900002718,0.737999975681,0.495999991894);
#863=STYLED_ITEM('color',(#856),#36);
#864=STYLED_ITEM('color',(#865),#54);
#865=PRESENTATION_STYLE_ASSIGNMENT((#866));
#866=SURFACE_STYLE_USAGE(.BOTH.,#867);
#867=SURFACE_SIDE_STYLE('',(#868));
#868=SURFACE_STYLE_FILL_AREA(#869);
#869=FILL_AREA_STYLE('',(#870));
#870=FILL_AREA_STYLE_COLOUR('',#871);
#871=COLOUR_RGB('',0.894999980927,0.89099997282,0.813000023365);
#872=STYLED_ITEM('color',(#873),#71);
#873=PRESENTATION_STYLE_ASSIGNMENT((#874));
#874=SURFACE_STYLE_USAGE(.BOTH.,#875);
#875=SURFACE_SIDE_STYLE('',(#876));
#876=SURFACE_STYLE_FILL_AREA(#877);
#877=FILL_AREA_STYLE('',(#878));
#878=FILL_AREA_STYLE_COLOUR('',#879);
#879=COLOUR_RGB('',0.824000000954,0.819999992847,0.78100001812);
#880=STYLED_ITEM('color',(#873),#87);
#881=STYLED_ITEM('color',(#873),#99);
#882=STYLED_ITEM('color',(#873),#117);
#883=STYLED_ITEM('color',(#873),#134);
#884=STYLED_ITEM('color',(#873),#153);
#885=STYLED_ITEM('color',(#873),#169);
#886=STYLED_ITEM('color',(#873),#185);
#887=STYLED_ITEM('color',(#865),#207);
#888=STYLED_ITEM('color',(#873),#278);
#889=STYLED_ITEM('color',(#865),#297);
#890=STYLED_ITEM('color',(#865),#336);
#891=STYLED_ITEM('color',(#865),#353);
#892=STYLED_ITEM('color',(#865),#369);
#893=STYLED_ITEM('color',(#865),#402);
#894=STYLED_ITEM('color',(#865),#437);
#895=STYLED_ITEM('color',(#865),#453);
#896=STYLED_ITEM('color',(#865),#470);
#897=STYLED_ITEM('color',(#873),#499);
#898=STYLED_ITEM('color',(#873),#515);
#899=STYLED_ITEM('color',(#873),#530);
#900=STYLED_ITEM('color',(#865),#539);
#901=STYLED_ITEM('color',(#856),#597);
#902=STYLED_ITEM('color',(#856),#613);
#903=STYLED_ITEM('color',(#856),#627);
#904=STYLED_ITEM('color',(#873),#639);
#905=STYLED_ITEM('color',(#873),#656);
#906=STYLED_ITEM('color',(#873),#669);
#907=STYLED_ITEM('color',(#873),#681);
#908=STYLED_ITEM('color',(#873),#699);
#909=STYLED_ITEM('color',(#873),#714);
#910=STYLED_ITEM('color',(#873),#728);
#911=STYLED_ITEM('color',(#865),#734);
#912=STYLED_ITEM('color',(#865),#745);
#913=STYLED_ITEM('color',(#873),#774);
#914=STYLED_ITEM('color',(#873),#786);
#915=STYLED_ITEM('color',(#856),#798);
#916=STYLED_ITEM('color',(#856),#806);
#917=STYLED_ITEM('color',(#873),#813);
#918=STYLED_ITEM('color',(#873),#820);
#919=STYLED_ITEM('color',(#865),#827);
#920=STYLED_ITEM('color',(#865),#837);
#921=STYLED_ITEM('color',(#865),#844);
ENDSEC;
END-ISO-10303-21;
